<mxfile host="app.diagrams.net" agent="Mozilla/5.0 (Windows NT 10.0; Win64; x64) AppleWebKit/537.36 (KHTML, like Gecko) Chrome/138.0.0.0 Safari/537.36" version="28.0.7">
  <diagram name="Page-1" id="6wrjTDwFQBECk2bBrqCh">
    <mxGraphModel grid="1" page="1" gridSize="10" guides="1" tooltips="1" connect="1" arrows="1" fold="1" pageScale="1" pageWidth="850" pageHeight="1100" math="0" shadow="0">
      <root>
        <mxCell id="0" />
        <mxCell id="1" parent="0" />
        <mxCell id="Sx4C-vdFvh8jMLwF0XmN-2" style="edgeStyle=orthogonalEdgeStyle;rounded=0;orthogonalLoop=1;jettySize=auto;html=1;exitX=0.5;exitY=1;exitDx=0;exitDy=0;entryX=0.5;entryY=0;entryDx=0;entryDy=0;" edge="1" parent="1" source="Sx4C-vdFvh8jMLwF0XmN-1">
          <mxGeometry relative="1" as="geometry">
            <mxPoint x="400" y="170" as="targetPoint" />
            <Array as="points" />
          </mxGeometry>
        </mxCell>
        <mxCell id="Sx4C-vdFvh8jMLwF0XmN-1" value="START" style="rounded=1;whiteSpace=wrap;html=1;" vertex="1" parent="1">
          <mxGeometry x="340" width="120" height="60" as="geometry" />
        </mxCell>
        <mxCell id="Sx4C-vdFvh8jMLwF0XmN-6" style="edgeStyle=orthogonalEdgeStyle;rounded=0;orthogonalLoop=1;jettySize=auto;html=1;exitX=0.5;exitY=1;exitDx=0;exitDy=0;exitPerimeter=0;" edge="1" parent="1" target="Sx4C-vdFvh8jMLwF0XmN-7">
          <mxGeometry relative="1" as="geometry">
            <mxPoint x="400" y="300" as="targetPoint" />
            <mxPoint x="400" y="240" as="sourcePoint" />
          </mxGeometry>
        </mxCell>
        <mxCell id="Sx4C-vdFvh8jMLwF0XmN-36" value="yes" style="edgeLabel;html=1;align=center;verticalAlign=middle;resizable=0;points=[];" connectable="0" vertex="1" parent="Sx4C-vdFvh8jMLwF0XmN-6">
          <mxGeometry x="-0.142" y="-2" relative="1" as="geometry">
            <mxPoint y="1" as="offset" />
          </mxGeometry>
        </mxCell>
        <mxCell id="Sx4C-vdFvh8jMLwF0XmN-8" style="edgeStyle=orthogonalEdgeStyle;rounded=0;orthogonalLoop=1;jettySize=auto;html=1;" edge="1" parent="1" source="Sx4C-vdFvh8jMLwF0XmN-7">
          <mxGeometry relative="1" as="geometry">
            <mxPoint x="510" y="330" as="targetPoint" />
          </mxGeometry>
        </mxCell>
        <mxCell id="Sx4C-vdFvh8jMLwF0XmN-35" value="no" style="edgeLabel;html=1;align=center;verticalAlign=middle;resizable=0;points=[];" connectable="0" vertex="1" parent="Sx4C-vdFvh8jMLwF0XmN-8">
          <mxGeometry x="-0.4187" y="-2" relative="1" as="geometry">
            <mxPoint as="offset" />
          </mxGeometry>
        </mxCell>
        <mxCell id="Sx4C-vdFvh8jMLwF0XmN-10" style="edgeStyle=orthogonalEdgeStyle;rounded=0;orthogonalLoop=1;jettySize=auto;html=1;exitX=0.5;exitY=1;exitDx=0;exitDy=0;exitPerimeter=0;" edge="1" parent="1" source="Sx4C-vdFvh8jMLwF0XmN-7" target="Sx4C-vdFvh8jMLwF0XmN-11">
          <mxGeometry relative="1" as="geometry">
            <mxPoint x="400" y="460" as="targetPoint" />
            <Array as="points">
              <mxPoint x="400" y="400" />
              <mxPoint x="400" y="400" />
            </Array>
          </mxGeometry>
        </mxCell>
        <mxCell id="Sx4C-vdFvh8jMLwF0XmN-37" value="yes" style="edgeLabel;html=1;align=center;verticalAlign=middle;resizable=0;points=[];" connectable="0" vertex="1" parent="Sx4C-vdFvh8jMLwF0XmN-10">
          <mxGeometry x="-0.6222" y="1" relative="1" as="geometry">
            <mxPoint x="-1" y="5" as="offset" />
          </mxGeometry>
        </mxCell>
        <mxCell id="Sx4C-vdFvh8jMLwF0XmN-7" value="is username vadid?" style="strokeWidth=2;html=1;shape=mxgraph.flowchart.decision;whiteSpace=wrap;" vertex="1" parent="1">
          <mxGeometry x="350" y="280" width="100" height="100" as="geometry" />
        </mxCell>
        <mxCell id="Sx4C-vdFvh8jMLwF0XmN-16" style="edgeStyle=orthogonalEdgeStyle;rounded=0;orthogonalLoop=1;jettySize=auto;html=1;" edge="1" parent="1" source="Sx4C-vdFvh8jMLwF0XmN-11">
          <mxGeometry relative="1" as="geometry">
            <mxPoint x="500" y="460" as="targetPoint" />
          </mxGeometry>
        </mxCell>
        <mxCell id="Sx4C-vdFvh8jMLwF0XmN-38" value="no" style="edgeLabel;html=1;align=center;verticalAlign=middle;resizable=0;points=[];" connectable="0" vertex="1" parent="Sx4C-vdFvh8jMLwF0XmN-16">
          <mxGeometry x="0.2356" y="-3" relative="1" as="geometry">
            <mxPoint as="offset" />
          </mxGeometry>
        </mxCell>
        <mxCell id="Sx4C-vdFvh8jMLwF0XmN-18" style="edgeStyle=orthogonalEdgeStyle;rounded=0;orthogonalLoop=1;jettySize=auto;html=1;exitX=0.5;exitY=1;exitDx=0;exitDy=0;exitPerimeter=0;" edge="1" parent="1" source="Sx4C-vdFvh8jMLwF0XmN-11" target="Sx4C-vdFvh8jMLwF0XmN-19">
          <mxGeometry relative="1" as="geometry">
            <mxPoint x="400" y="600" as="targetPoint" />
          </mxGeometry>
        </mxCell>
        <mxCell id="Sx4C-vdFvh8jMLwF0XmN-39" value="yes" style="edgeLabel;html=1;align=center;verticalAlign=middle;resizable=0;points=[];" connectable="0" vertex="1" parent="Sx4C-vdFvh8jMLwF0XmN-18">
          <mxGeometry x="-0.5296" y="-2" relative="1" as="geometry">
            <mxPoint y="-1" as="offset" />
          </mxGeometry>
        </mxCell>
        <mxCell id="Sx4C-vdFvh8jMLwF0XmN-11" value="is password valid" style="strokeWidth=2;html=1;shape=mxgraph.flowchart.decision;whiteSpace=wrap;" vertex="1" parent="1">
          <mxGeometry x="350" y="440" width="100" height="100" as="geometry" />
        </mxCell>
        <mxCell id="Sx4C-vdFvh8jMLwF0XmN-20" style="edgeStyle=orthogonalEdgeStyle;rounded=0;orthogonalLoop=1;jettySize=auto;html=1;" edge="1" parent="1" source="Sx4C-vdFvh8jMLwF0XmN-19" target="Sx4C-vdFvh8jMLwF0XmN-21">
          <mxGeometry relative="1" as="geometry">
            <mxPoint x="520" y="600" as="targetPoint" />
          </mxGeometry>
        </mxCell>
        <mxCell id="Sx4C-vdFvh8jMLwF0XmN-60" value="yes" style="edgeLabel;html=1;align=center;verticalAlign=middle;resizable=0;points=[];" connectable="0" vertex="1" parent="Sx4C-vdFvh8jMLwF0XmN-20">
          <mxGeometry x="-0.3889" y="-5" relative="1" as="geometry">
            <mxPoint as="offset" />
          </mxGeometry>
        </mxCell>
        <mxCell id="Sx4C-vdFvh8jMLwF0XmN-19" value="has three attempts been exceeded?" style="rhombus;whiteSpace=wrap;html=1;" vertex="1" parent="1">
          <mxGeometry x="360" y="630" width="100" height="100" as="geometry" />
        </mxCell>
        <mxCell id="Sx4C-vdFvh8jMLwF0XmN-21" value="lock account" style="rounded=1;whiteSpace=wrap;html=1;" vertex="1" parent="1">
          <mxGeometry x="530" y="570" width="120" height="60" as="geometry" />
        </mxCell>
        <mxCell id="Sx4C-vdFvh8jMLwF0XmN-24" style="edgeStyle=orthogonalEdgeStyle;rounded=0;orthogonalLoop=1;jettySize=auto;html=1;exitX=0;exitY=0.5;exitDx=0;exitDy=0;entryX=0.044;entryY=0.386;entryDx=0;entryDy=0;entryPerimeter=0;" edge="1" parent="1" source="Sx4C-vdFvh8jMLwF0XmN-19" target="Sx4C-vdFvh8jMLwF0XmN-19">
          <mxGeometry relative="1" as="geometry" />
        </mxCell>
        <mxCell id="Sx4C-vdFvh8jMLwF0XmN-45" style="edgeStyle=orthogonalEdgeStyle;rounded=0;orthogonalLoop=1;jettySize=auto;html=1;exitX=1;exitY=0.5;exitDx=0;exitDy=0;entryX=0;entryY=0.5;entryDx=0;entryDy=0;" edge="1" parent="1" source="Sx4C-vdFvh8jMLwF0XmN-30" target="Sx4C-vdFvh8jMLwF0XmN-33">
          <mxGeometry relative="1" as="geometry" />
        </mxCell>
        <mxCell id="Sx4C-vdFvh8jMLwF0XmN-30" value="show error message" style="shape=parallelogram;html=1;strokeWidth=2;perimeter=parallelogramPerimeter;whiteSpace=wrap;rounded=1;arcSize=12;size=0.23;" vertex="1" parent="1">
          <mxGeometry x="500" y="300" width="100" height="60" as="geometry" />
        </mxCell>
        <mxCell id="Sx4C-vdFvh8jMLwF0XmN-50" style="edgeStyle=orthogonalEdgeStyle;rounded=0;orthogonalLoop=1;jettySize=auto;html=1;exitX=0.5;exitY=0;exitDx=0;exitDy=0;entryX=1;entryY=0.5;entryDx=0;entryDy=0;" edge="1" parent="1" source="Sx4C-vdFvh8jMLwF0XmN-33" target="Sx4C-vdFvh8jMLwF0XmN-44">
          <mxGeometry relative="1" as="geometry">
            <Array as="points">
              <mxPoint x="700" y="265" />
              <mxPoint x="439" y="265" />
            </Array>
          </mxGeometry>
        </mxCell>
        <mxCell id="Sx4C-vdFvh8jMLwF0XmN-33" value="increase attempts" style="rounded=0;whiteSpace=wrap;html=1;" vertex="1" parent="1">
          <mxGeometry x="640" y="290" width="120" height="70" as="geometry" />
        </mxCell>
        <mxCell id="Sx4C-vdFvh8jMLwF0XmN-56" style="edgeStyle=orthogonalEdgeStyle;rounded=0;orthogonalLoop=1;jettySize=auto;html=1;exitX=0.5;exitY=1;exitDx=0;exitDy=0;entryX=0.25;entryY=0;entryDx=0;entryDy=0;" edge="1" parent="1" source="Sx4C-vdFvh8jMLwF0XmN-40" target="Sx4C-vdFvh8jMLwF0XmN-21">
          <mxGeometry relative="1" as="geometry" />
        </mxCell>
        <mxCell id="Sx4C-vdFvh8jMLwF0XmN-57" style="edgeStyle=orthogonalEdgeStyle;rounded=0;orthogonalLoop=1;jettySize=auto;html=1;exitX=1;exitY=0.5;exitDx=0;exitDy=0;entryX=0;entryY=0.5;entryDx=0;entryDy=0;" edge="1" parent="1" source="Sx4C-vdFvh8jMLwF0XmN-40" target="Sx4C-vdFvh8jMLwF0XmN-52">
          <mxGeometry relative="1" as="geometry" />
        </mxCell>
        <mxCell id="Sx4C-vdFvh8jMLwF0XmN-40" value="has 3 attempts been exceeded?" style="rhombus;whiteSpace=wrap;html=1;" vertex="1" parent="1">
          <mxGeometry x="500" y="420" width="80" height="80" as="geometry" />
        </mxCell>
        <mxCell id="Sx4C-vdFvh8jMLwF0XmN-44" value="enter username and password" style="shape=parallelogram;html=1;strokeWidth=2;perimeter=parallelogramPerimeter;whiteSpace=wrap;rounded=1;arcSize=12;size=0.23;" vertex="1" parent="1">
          <mxGeometry x="350" y="180" width="100" height="60" as="geometry" />
        </mxCell>
        <mxCell id="Sx4C-vdFvh8jMLwF0XmN-53" style="edgeStyle=orthogonalEdgeStyle;rounded=0;orthogonalLoop=1;jettySize=auto;html=1;" edge="1" parent="1" source="Sx4C-vdFvh8jMLwF0XmN-52" target="Sx4C-vdFvh8jMLwF0XmN-54">
          <mxGeometry relative="1" as="geometry">
            <mxPoint x="800" y="460" as="targetPoint" />
          </mxGeometry>
        </mxCell>
        <mxCell id="Sx4C-vdFvh8jMLwF0XmN-52" value="show errorr message" style="shape=parallelogram;perimeter=parallelogramPerimeter;whiteSpace=wrap;html=1;fixedSize=1;" vertex="1" parent="1">
          <mxGeometry x="620" y="430" width="120" height="60" as="geometry" />
        </mxCell>
        <mxCell id="Sx4C-vdFvh8jMLwF0XmN-61" style="edgeStyle=orthogonalEdgeStyle;rounded=0;orthogonalLoop=1;jettySize=auto;html=1;exitX=0.5;exitY=0;exitDx=0;exitDy=0;" edge="1" parent="1" source="Sx4C-vdFvh8jMLwF0XmN-54">
          <mxGeometry relative="1" as="geometry">
            <mxPoint x="400" y="400" as="targetPoint" />
            <Array as="points">
              <mxPoint x="850" y="410" />
              <mxPoint x="400" y="410" />
            </Array>
          </mxGeometry>
        </mxCell>
        <mxCell id="Sx4C-vdFvh8jMLwF0XmN-54" value="reser error message" style="rounded=0;whiteSpace=wrap;html=1;" vertex="1" parent="1">
          <mxGeometry x="790" y="430" width="120" height="60" as="geometry" />
        </mxCell>
      </root>
    </mxGraphModel>
  </diagram>
</mxfile>
